# xmcd
#
# Track frame offsets:
#	150
#	12457
#	22625
#	39575
#	56095
#	68745
#	85447
#	96377
#	107817
#	118455
#	130520
#	145595
#
# Disc length: 2121
#
# Revision: 2
# Processed by: cddbd v1.5.1PL0 Copyright (c) Steve Scherf et al.
# Submitted via: CDex 1.50
# Normalized: r0:DSETVAR1,TDELIM( - ),TSWAP
#
DISCID=a108470c
DTITLE=Various Artist - Holiday Wrapped Up
DYEAR=2003
DGENRE=Jazz
TTITLE0=Dean Martin - Ive Got My Love to Keep Me Warm
TTITLE1=Tony Bennett - Winter Wonderland
TTITLE2=Natalie Cole - The Christmas Song
TTITLE3=Micahle Buble - Ill Be Home for Christmas
TTITLE4=Johnny Mathis - Its the Most wonderful Time of the Year
TTITLE5=Lou Rawls - Have Yourself a Merry Little Christmas
TTITLE6=Nancy wilson - What are You Doing Christmas Eve
TTITLE7=Nat King Cole - All I Want for Christmas
TTITLE8=Andy williams - The Holiday Season
TTITLE9=The Drifters - white Christmas
TTITLE10=Sophie Milman - Santa Baby
TTITLE11=Perry Como - Jingle Bells
EXTD=YEAR: 2003
EXTT0=
EXTT1=
EXTT2=
EXTT3=
EXTT4=
EXTT5=
EXTT6=
EXTT7=
EXTT8=
EXTT9=
EXTT10=
EXTT11=
PLAYORDER=
